# xmcd
#
# Track frame offsets: 
#        150
#        19342
#        51080
#        73137
#        91817
#        109370
#        130297
#        147737
#        164117
#        179880
#        205265
#
# Disc length: 3110 seconds
#
# Revision: 3
# Processed by: cddbd v1.4PL0 Copyright (c) Steve Scherf et al.
# Submitted via: ExactAudioCopy v0.95a3
#
DISCID=b50c240b
DTITLE=Joe Ely - Letter To Laredo
DYEAR=1995
DGENRE=Country
TTITLE0=All Just To Get To You
TTITLE1=Gallo Del Cielo
TTITLE2=Run Preciosa
TTITLE3=Saint Valentine
TTITLE4=Ranches And Rivers
TTITLE5=Letter To Laredo
TTITLE6=I Saw It In You
TTITLE7=She Finally Spoke Spanish To Me
TTITLE8=I Ain't Been Here Long
TTITLE9=That Ain't Enough
TTITLE10=I'm A Thousand Miles From Home
EXTD=
EXTT0=
EXTT1=
EXTT2=
EXTT3=
EXTT4=
EXTT5=
EXTT6=
EXTT7=
EXTT8=
EXTT9=
EXTT10=
PLAYORDER=
